<mxfile host="app.diagrams.net" modified="2022-09-15T02:39:07.621Z" agent="5.0 (Macintosh; Intel Mac OS X 10_15_7) AppleWebKit/537.36 (KHTML, like Gecko) Chrome/105.0.0.0 Safari/537.36" etag="voK8Sm1mijg7hqjTybak" version="20.3.0" type="github">
  <diagram id="y8nd4SXiOJbdPAyT8sHm" name="第 1 页">
    <mxGraphModel dx="490" dy="315" grid="1" gridSize="10" guides="1" tooltips="1" connect="1" arrows="1" fold="1" page="1" pageScale="1" pageWidth="827" pageHeight="1169" math="0" shadow="0">
      <root>
        <mxCell id="0" />
        <mxCell id="1" parent="0" />
        <mxCell id="68mi13O_anb0eEHPfkuq-4" style="edgeStyle=orthogonalEdgeStyle;rounded=0;orthogonalLoop=1;jettySize=auto;html=1;entryX=0.5;entryY=0;entryDx=0;entryDy=0;exitX=0.5;exitY=1;exitDx=0;exitDy=0;" edge="1" parent="1" source="68mi13O_anb0eEHPfkuq-1" target="68mi13O_anb0eEHPfkuq-2">
          <mxGeometry relative="1" as="geometry" />
        </mxCell>
        <mxCell id="68mi13O_anb0eEHPfkuq-6" value="dependence" style="edgeLabel;html=1;align=center;verticalAlign=middle;resizable=0;points=[];" vertex="1" connectable="0" parent="68mi13O_anb0eEHPfkuq-4">
          <mxGeometry x="0.2545" y="1" relative="1" as="geometry">
            <mxPoint x="24" y="-2" as="offset" />
          </mxGeometry>
        </mxCell>
        <mxCell id="68mi13O_anb0eEHPfkuq-5" style="edgeStyle=orthogonalEdgeStyle;rounded=0;orthogonalLoop=1;jettySize=auto;html=1;entryX=0.567;entryY=0;entryDx=0;entryDy=0;entryPerimeter=0;exitX=0.5;exitY=1;exitDx=0;exitDy=0;" edge="1" parent="1" source="68mi13O_anb0eEHPfkuq-1" target="68mi13O_anb0eEHPfkuq-3">
          <mxGeometry relative="1" as="geometry" />
        </mxCell>
        <mxCell id="68mi13O_anb0eEHPfkuq-7" value="dependence" style="edgeLabel;html=1;align=center;verticalAlign=middle;resizable=0;points=[];" vertex="1" connectable="0" parent="68mi13O_anb0eEHPfkuq-5">
          <mxGeometry x="-0.1567" y="-2" relative="1" as="geometry">
            <mxPoint as="offset" />
          </mxGeometry>
        </mxCell>
        <mxCell id="68mi13O_anb0eEHPfkuq-1" value="application" style="rounded=0;whiteSpace=wrap;html=1;" vertex="1" parent="1">
          <mxGeometry x="310" y="160" width="120" height="60" as="geometry" />
        </mxCell>
        <mxCell id="68mi13O_anb0eEHPfkuq-2" value="dubbo" style="rounded=0;whiteSpace=wrap;html=1;" vertex="1" parent="1">
          <mxGeometry x="160" y="290" width="120" height="60" as="geometry" />
        </mxCell>
        <mxCell id="68mi13O_anb0eEHPfkuq-3" value="htpp" style="rounded=0;whiteSpace=wrap;html=1;" vertex="1" parent="1">
          <mxGeometry x="500" y="290" width="120" height="60" as="geometry" />
        </mxCell>
      </root>
    </mxGraphModel>
  </diagram>
</mxfile>
